name C:\Users\u0101727\Documents\MyRepositories\upper-imu-dc\Results\main_tracking\Case_68\kinematics.mot
datacolumns 10
datarows 56
range 2.00000000 2.55000000
endheader 
time	clav_prot	clav_elev	scapula_abduction	scapula_elevation	scapula_upward_rot	scapula_winging	plane_elv	shoulder_elv	axial_rot	
          2.00000000	        -28.30288920	          4.82754530	         -0.02136827	         -4.04537596	         47.66925980	         -5.14118672	         40.72249932	         58.99451685	          0.22839479	
          2.01000000	        -28.47353681	          4.93068794	         -0.09518019	         -4.01161762	         47.97934289	         -5.23478006	         40.71551939	         59.16469275	          0.29367212	
          2.02000000	        -28.64161592	          5.02790064	         -0.16916100	         -3.98069937	         48.28124577	         -5.32564568	         40.70345824	         59.33852125	          0.36217720	
          2.03000000	        -28.80669573	          5.11869540	         -0.24244462	         -3.95296197	         48.57496848	         -5.41363131	         40.68648732	         59.51569864	          0.43384274	
          2.04000000	        -28.96856769	          5.20299453	         -0.31455775	         -3.92848202	         48.86065920	         -5.49871790	         40.66498441	         59.69575548	          0.50839398	
          2.05000000	        -29.12668382	          5.28094645	         -0.38437370	         -3.90716508	         49.13861534	         -5.58097722	         40.63930581	         59.87808171	          0.58557098	
          2.06000000	        -29.28071748	          5.35295712	         -0.45125046	         -3.88875161	         49.40911102	         -5.66055357	         40.60998008	         60.06210770	          0.66495064	
          2.07000000	        -29.43019505	          5.41952811	         -0.51430541	         -3.87289817	         49.67245159	         -5.73762754	         40.57749830	         60.24727915	          0.74605049	
          2.08000000	        -29.57465882	          5.48120981	         -0.57270772	         -3.85922814	         49.92893356	         -5.81238450	         40.54224337	         60.43311967	          0.82833266	
          2.09000000	        -29.71525457	          5.53878381	         -0.62843540	         -3.84735356	         50.17881629	         -5.88499559	         40.50443141	         60.61926946	          0.91121428	
          2.10000000	        -29.85324014	          5.59299769	         -0.68365433	         -3.83691906	         50.42232705	         -5.95560219	         40.46410817	         60.80547765	          0.99416794	
          2.11000000	        -29.98875992	          5.64435617	         -0.73856006	         -3.82762821	         50.65970274	         -6.02432783	         40.42130430	         60.99153159	          1.07677290	
          2.12000000	        -30.12188869	          5.69323863	         -0.79316918	         -3.81926331	         50.89121318	         -6.09128402	         40.37610727	         61.17721452	          1.15874262	
          2.13000000	        -30.25268465	          5.73992112	         -0.84739206	         -3.81167816	         51.11718990	         -6.15657828	         40.32863532	         61.36226124	          1.23992975	
          2.14000000	        -30.38122390	          5.78460926	         -0.90114831	         -3.80477458	         51.33797144	         -6.22030599	         40.27900223	         61.54640290	          1.32036077	
          2.15000000	        -30.50757375	          5.82745622	         -0.95431452	         -3.79848889	         51.55391645	         -6.28255525	         40.22728544	         61.72933842	          1.40027115	
          2.16000000	        -30.63172347	          5.86857312	         -1.00663690	         -3.79277650	         51.76536783	         -6.34340531	         40.17353185	         61.91076298	          1.48011967	
          2.17000000	        -30.75365754	          5.90805848	         -1.05788677	         -3.78759631	         51.97262608	         -6.40293004	         40.11779286	         62.09039563	          1.56053482	
          2.18000000	        -30.87335033	          5.94601214	         -1.10785931	         -3.78290053	         52.17594385	         -6.46120168	         40.06014241	         62.26800135	          1.64219291	
          2.19000000	        -30.99078262	          5.98254960	         -1.15639446	         -3.77862727	         52.37553834	         -6.51829408	         40.00067521	         62.44340487	          1.72565631	
          2.20000000	        -31.10595010	          6.01780942	         -1.20337730	         -3.77469777	         52.57160950	         -6.57428426	         39.93949051	         62.61649739	          1.81124271	
          2.21000000	        -31.21886237	          6.05195948	         -1.24872901	         -3.77101308	         52.76435035	         -6.62925301	         39.87667971	         62.78723667	          1.89898661	
          2.22000000	        -31.32953099	          6.08519585	         -1.29238689	         -3.76745398	         52.95394623	         -6.68328291	         39.81232185	         62.95564330	          1.98868125	
          2.23000000	        -31.43796152	          6.11773982	         -1.33429613	         -3.76388208	         53.14056752	         -6.73645592	         39.74648694	         63.12179210	          2.07996074	
          2.24000000	        -31.54415376	          6.14982878	         -1.37441228	         -3.76014596	         53.32436419	         -6.78885104	         39.67924637	         63.28579764	          2.17237638	
          2.25000000	        -31.64810308	          6.18170129	         -1.41270262	         -3.75609155	         53.50546183	         -6.84054025	         39.61067563	         63.44780108	          2.26546488	
          2.26000000	        -31.74980550	          6.21357985	         -1.44914843	         -3.75157467	         53.68396338	         -6.89158530	         39.54085767	         63.60795503	          2.35879145	
          2.27000000	        -31.84926367	          6.24565244	         -1.48374578	         -3.74647463	         53.85995411	         -6.94203446	         39.46988291	         63.76641007	          2.45197905	
          2.28000000	        -31.94649388	          6.27805647	         -1.51650704	         -3.74070636	         54.03350862	         -6.99192022	         39.39784837	         63.92330265	          2.54472816	
          2.29000000	        -32.04153211	          6.31087001	         -1.54746229	         -3.73422750	         54.20469870	         -7.04125878	         39.32485480	         64.07874453	          2.63682510	
          2.30000000	        -32.13443494	          6.34411103	         -1.57665515	         -3.72703922	         54.37360043	         -7.09005122	         39.25100221	         64.23281440	          2.72813983	
          2.31000000	        -32.22526849	          6.37774446	         -1.60412386	         -3.71918014	         54.54029733	         -7.13828625	         39.17638513	         64.38555456	          2.81861567	
          2.32000000	        -32.31410380	          6.41169591	         -1.62989974	         -3.71071512	         54.70487395	         -7.18594251	         39.10108953	         64.53697871	          2.90825529	
          2.33000000	        -32.40101964	          6.44586902	         -1.65402444	         -3.70172341	         54.86740561	         -7.23299097	         39.02519651	         64.68708586	          2.99708789	
          2.34000000	        -32.48596232	          6.48014425	         -1.67632084	         -3.69228802	         55.02796661	         -7.27940237	         38.94878905	         64.83585288	          3.08513236	
          2.35000000	        -32.56880329	          6.51439290	         -1.69646817	         -3.68249074	         55.18665533	         -7.32515520	         38.87195052	         64.98320967	          3.17237264	
          2.36000000	        -32.64946632	          6.54849780	         -1.71421723	         -3.67240998	         55.34358889	         -7.37023283	         38.79475030	         65.12905225	          3.25875486	
          2.37000000	        -32.72772951	          6.58232176	         -1.72904345	         -3.66212178	         55.49891201	         -7.41462137	         38.71722055	         65.27324329	          3.34414396	
          2.38000000	        -32.80387787	          6.61584165	         -1.74131743	         -3.65168031	         55.65275135	         -7.45830807	         38.63936334	         65.41566052	          3.42832732	
          2.39000000	        -32.87818616	          6.64904530	         -1.75139604	         -3.64113031	         55.80523277	         -7.50128048	         38.56114297	         65.55617816	          3.51110508	
          2.40000000	        -32.95071361	          6.68190040	         -1.75926252	         -3.63050687	         55.95649151	         -7.54353272	         38.48251475	         65.69465517	          3.59223290	
          2.41000000	        -33.02157666	          6.71441431	         -1.76501992	         -3.61982300	         56.10664809	         -7.58506479	         38.40343629	         65.83095603	          3.67147425	
          2.42000000	        -33.09082169	          6.74659396	         -1.76866113	         -3.60908370	         56.25581427	         -7.62587968	         38.32387221	         65.96494617	          3.74861405	
          2.43000000	        -33.15848274	          6.77845924	         -1.77017240	         -3.59828309	         56.40408917	         -7.66598377	         38.24379588	         66.09649449	          3.82347405	
          2.44000000	        -33.22458010	          6.81003972	         -1.76953321	         -3.58740646	         56.55155527	         -7.70538511	         38.16318859	         66.22547788	          3.89592214	
          2.45000000	        -33.28912339	          6.84137650	         -1.76672510	         -3.57642941	         56.69827446	         -7.74409284	         38.08203801	         66.35178480	          3.96587813	
          2.46000000	        -33.35211168	          6.87252058	         -1.76173425	         -3.56531909	         56.84428453	         -7.78211541	         38.00033384	         66.47531977	          4.03331291	
          2.47000000	        -33.41353244	          6.90353114	         -1.75455136	         -3.55403532	         56.98959638	         -7.81945911	         37.91806312	         66.59600724	          4.09824222	
          2.48000000	        -33.47335980	          6.93447161	         -1.74516927	         -3.54253326	         57.13419199	         -7.85612596	         37.83520429	         66.71379558	          4.16071621	
          2.49000000	        -33.53155304	          6.96540541	         -1.73357984	         -3.53076632	         57.27802349	         -7.89211198	         37.75172215	         66.82866013	          4.22080398	
          2.50000000	        -33.58805621	          6.99639080	         -1.71977190	         -3.51868971	         57.42101303	         -7.92740574	         37.66756501	         66.94060534	          4.27857812	
          2.51000000	        -33.64279815	          7.02747890	         -1.70372996	         -3.50626196	         57.56305375	         -7.96198829	         37.58266428	         67.04966459	          4.33409934	
          2.52000000	        -33.69569626	          7.05871163	         -1.68544027	         -3.49344673	         57.70400947	         -7.99583325	         37.49693725	         67.15590082	          4.38741016	
          2.53000000	        -33.74666071	          7.09012802	         -1.66489565	         -3.48020889	         57.84371985	         -8.02891083	         37.41029358	         67.25939857	          4.43852177	
          2.54000000	        -33.79559017	          7.12176106	         -1.64208947	         -3.46651622	         57.98199775	         -8.06118723	         37.32263775	         67.36026646	          4.48743273	
          2.55000000	        -33.84247624	          7.15367600	         -1.61717229	         -3.45232462	         58.11866801	         -8.09263944	         37.23386922	         67.45858870	          4.53406834	
